# xmcd
#
# Track frame offsets:
# 150
# 14542
# 28102
# 39630
# 51622
# 65272
# 81385
# 94565
# 106770
# 119872
# 133920
# 148715
# 163690
# 177250
# 190357
# 204230
# 218050
# 231932
# 244920
# 259597
# 272390
# 286547
# 297827
# 311107
# 325987
# 340160
#
# Disc length: 4708 seconds
#
#
# Revision: 1
# Processed by: cddbd v1.4PL0 Copyright (c) Steve Scherf et al.
# Submitted via: FreeRIP 2.00 
#
DISCID=8d12621a
DTITLE=Ernest Tubb - Walking The Floor Over You - Disc 1
DYEAR=1996
DGENRE=Country
TTITLE0=The Passing Of Jimmie Rogers (1936)
TTITLE1=The Last Thoughts Of Jimmie Rogers (1936)
TTITLE2=Married Man Blues (1937)
TTITLE3=Mean Old Bed Bug Blues (1937)
TTITLE4=My Mother Is Lonely (1937)
TTITLE5=The Right Train To Heaven (1937)
TTITLE6=The T. B. Is Whipping Me (1937)
TTITLE7=Since That Black Cat Crossed My Path (1937)
TTITLE8=Blue Eyed Elaine (1940)
TTITLE9=I'll Never Cry Over You (1940)
TTITLE10=I'll Get Along Somehow (alt) (1940)
TTITLE11=You Broke A Heart (That Was Breaking For You) (1940)
TTITLE12=I Ain't Gonna Love You Anymore (1940)
TTITLE13=I'm Glad I Met You After All (1941)
TTITLE14=I Cared For You More Than I Knew (1941)
TTITLE15=You'll Love Me Too Late (1941)
TTITLE16=I've Really Learned A Lot (1943)
TTITLE17=Swell San Angelo (alt) (1941)
TTITLE18=I Know What It Means To Be Lonely (1942)
TTITLE19=Please Remember Me (1941)
TTITLE20=My Rainbow Trail (1941)
TTITLE21=Last Night I Dreamed (1941)
TTITLE22=I'm Missing You (1941)
TTITLE23=My Baby And My Wife (1940)
TTITLE24=I'll Get Along Somehow (1940)
TTITLE25=Swell San Angelo (1941)
EXTD=
EXTT0=
EXTT1=
EXTT2=
EXTT3=
EXTT4=
EXTT5=
EXTT6=
EXTT7=
EXTT8=
EXTT9=
EXTT10=
EXTT11=
EXTT12=
EXTT13=
EXTT14=
EXTT15=
EXTT16=
EXTT17=
EXTT18=
EXTT19=
EXTT20=
EXTT21=
EXTT22=
EXTT23=
EXTT24=
EXTT25=
PLAYORDER=
